<svg width="21" height="21" viewBox="0 0 21 21" fill="none" xmlns="http://www.w3.org/2000/svg">
<path d="M19.9245 12.6231C20.0687 11.9728 20.1454 11.2978 20.1454 10.6049C20.1454 5.41048 15.8747 1.19933 10.6063 1.19933C10.0501 1.19933 9.50516 1.24678 8.97502 1.3369C8.12246 0.807407 7.11384 0.5 6.03186 0.5C2.97667 0.5 0.5 2.94224 0.5 5.95441C0.5 6.96134 0.777871 7.90381 1.26039 8.71339C1.13387 9.32442 1.06736 9.95695 1.06736 10.6049C1.06736 15.7994 5.33802 20.0105 10.6063 20.0105C11.203 20.0105 11.7867 19.9561 12.353 19.8527C13.1318 20.2654 14.0221 20.5 14.9681 20.5C18.0234 20.5 20.5 18.058 20.5 15.0455C20.5 14.1752 20.2923 13.3531 19.9245 12.6231Z" fill="url(#paint0_linear_546_67)" stroke="#FFDC00"/>
<path d="M10.5 3.5V10.8684L17.5 13.5" stroke="white" stroke-width="2"/>
<defs>
<linearGradient id="paint0_linear_546_67" x1="10.5" y1="0.5" x2="10.5" y2="20.5" gradientUnits="userSpaceOnUse">
<stop stop-color="white"/>
<stop offset="0.5" stop-color="#FFDC00"/>
</linearGradient>
</defs>
</svg>
