<svg width="21" height="16" viewBox="0 0 21 16" fill="none" xmlns="http://www.w3.org/2000/svg">
<path d="M15.2001 0.600098C15.2001 0.268726 14.9315 9.72748e-05 14.6001 9.72748e-05H9.2001C8.86873 9.72748e-05 8.6001 0.268726 8.6001 0.600098C8.6001 0.931469 8.86873 1.2001 9.2001 1.2001H14.0001V6.0001C14.0001 6.33147 14.2687 6.6001 14.6001 6.6001C14.9315 6.6001 15.2001 6.33147 15.2001 6.0001V0.600098ZM8.89605 5.45562C8.66174 5.68993 8.66174 6.06983 8.89605 6.30414C9.13037 6.53846 9.51026 6.53846 9.74458 6.30414L9.32031 5.87988L8.89605 5.45562ZM5.71085 4.3786V4.9786C8.20207 4.9786 10.2216 6.99813 10.2216 9.48935H10.8216H11.4216C11.4216 6.33539 8.86481 3.7786 5.71085 3.7786V4.3786ZM10.8216 9.48935H10.2216C10.2216 11.9806 8.20207 14.0001 5.71085 14.0001V14.6001V15.2001C8.86481 15.2001 11.4216 12.6433 11.4216 9.48935H10.8216ZM5.71085 14.6001V14.0001C3.21963 14.0001 1.2001 11.9806 1.2001 9.48935H0.600098H9.76324e-05C9.76324e-05 12.6433 2.55689 15.2001 5.71085 15.2001V14.6001ZM0.600098 9.48935H1.2001C1.2001 6.99813 3.21963 4.9786 5.71085 4.9786V4.3786V3.7786C2.55689 3.7786 9.76324e-05 6.33539 9.76324e-05 9.48935H0.600098ZM14.6001 0.600098L14.1758 0.175834L8.89605 5.45562L9.32031 5.87988L9.74458 6.30414L15.0244 1.02436L14.6001 0.600098Z" fill="#D2D2D2"/>
</svg>
