<svg width="10" height="17" viewBox="0 0 10 17" fill="none" xmlns="http://www.w3.org/2000/svg">
<path d="M9.76542 13.4885L9.06709 15.3465C9.00296 15.5192 8.90346 15.6766 8.77496 15.8087C8.64646 15.9408 8.4918 16.0445 8.32088 16.1134C8.14996 16.1822 7.96654 16.2146 7.78238 16.2084C7.59823 16.2023 7.41738 16.1577 7.25144 16.0776C5.42356 15.1543 3.83775 13.815 2.62145 12.1675C1.48248 10.6542 0.690682 8.90871 0.302268 7.05496C-0.137105 5.04591 -0.0970529 2.96162 0.419179 0.970936C0.468074 0.79386 0.553304 0.628905 0.669442 0.486573C0.785581 0.344241 0.930084 0.227651 1.09375 0.144226C1.25742 0.0608006 1.43666 0.012368 1.62007 0.0020119C1.80348 -0.00834423 1.98704 0.019603 2.15906 0.0840741L4.01698 0.782408C4.31865 0.892419 4.57002 1.10837 4.72424 1.39001C4.87846 1.67164 4.92501 1.99975 4.85522 2.31317C4.71015 2.93722 4.63615 3.57568 4.63463 4.21637C4.63463 4.46935 4.56212 4.71704 4.42567 4.93007C4.28923 5.14311 4.09457 5.31256 3.86478 5.41836L2.78263 5.90925C3.08148 7.79109 3.88271 9.55738 5.1018 11.0218L6.18395 10.5309C6.41492 10.4277 6.67064 10.3928 6.9208 10.4305C7.17097 10.4681 7.40509 10.5767 7.59544 10.7433C8.07852 11.1642 8.60765 11.5291 9.17275 11.831C9.45764 11.9865 9.67543 12.2413 9.78471 12.5469C9.89398 12.8525 9.88712 13.1876 9.76542 13.4885Z" fill="white"/>
</svg>
