<svg width="102" height="35" viewBox="0 0 102 35" fill="none" xmlns="http://www.w3.org/2000/svg">
<rect x="0.5" y="0.5" width="100.043" height="34" rx="17" fill="url(#paint0_linear_816_187)"/>
<rect x="0.5" y="0.5" width="100.043" height="34" rx="17" stroke="#FF0000"/>
<path d="M12.144 19.6355L10.8598 18.3515C10.7401 18.2328 10.6465 18.0904 10.5851 17.9334C10.5236 17.7764 10.4956 17.6083 10.5028 17.4399C10.51 17.2715 10.5524 17.1064 10.6271 16.9553C10.7018 16.8042 10.8073 16.6703 10.9367 16.5623C12.3969 15.3882 14.1121 14.5729 15.9445 14.182C17.6359 13.8048 19.3895 13.8047 21.0809 14.1815C22.921 14.5746 24.6426 15.3957 26.1063 16.5781C26.2353 16.6857 26.3406 16.8191 26.4153 16.9697C26.49 17.1202 26.5325 17.2847 26.5402 17.4526C26.5479 17.6205 26.5205 17.7881 26.4598 17.9449C26.3991 18.1016 26.3065 18.244 26.1877 18.363L24.9037 19.6472C24.6981 19.857 24.4232 19.9848 24.1302 20.0069C23.8372 20.029 23.5463 19.9438 23.3115 19.7672C22.8463 19.4105 22.3423 19.1076 21.809 18.8642C21.5982 18.7686 21.4192 18.6146 21.2933 18.4204C21.1673 18.2262 21.0997 17.9999 21.0984 17.7685L21.0983 16.6813C19.4173 16.2191 17.6427 16.2193 15.9619 16.6817L15.9619 17.7689C15.9607 18.0004 15.8931 18.2266 15.7672 18.4208C15.6412 18.6151 15.4623 18.7691 15.2515 18.8647C14.7183 19.1082 14.2143 19.4113 13.7492 19.768C13.5119 19.9466 13.2173 20.0318 12.9214 20.0074C12.6254 19.983 12.3488 19.8506 12.144 19.6355Z" fill="white"/>
<path d="M42.7148 24H36.4258V12.7969H42.4648V14.375H38.2852V17.5469H42.1367V19.1172H38.2852V22.4297H42.7148V24ZM51.6289 24H49.8164V19.4922C49.8164 17.9974 49.2878 17.25 48.2305 17.25C47.6784 17.25 47.2227 17.4583 46.8633 17.875C46.5039 18.2865 46.3242 18.8073 46.3242 19.4375V24H44.5039V16H46.3242V17.3281H46.3555C46.9544 16.3177 47.819 15.8125 48.9492 15.8125C49.819 15.8125 50.4831 16.0964 50.9414 16.6641C51.3997 17.2266 51.6289 18.0417 51.6289 19.1094V24ZM61.1211 24H59.3086V22.6406H59.2773C58.694 23.6719 57.7956 24.1875 56.582 24.1875C55.5977 24.1875 54.8086 23.8307 54.2148 23.1172C53.6263 22.3984 53.332 21.4219 53.332 20.1875C53.332 18.8646 53.6576 17.8047 54.3086 17.0078C54.9648 16.2109 55.8372 15.8125 56.9258 15.8125C58.0039 15.8125 58.7878 16.2448 59.2773 17.1094H59.3086V12.1562H61.1211V24ZM59.332 20.3438V19.2969C59.332 18.7292 59.1471 18.2474 58.7773 17.8516C58.4076 17.4557 57.9362 17.2578 57.3633 17.2578C56.6862 17.2578 56.1523 17.5104 55.7617 18.0156C55.3763 18.5208 55.1836 19.2214 55.1836 20.1172C55.1836 20.9297 55.3685 21.5729 55.7383 22.0469C56.1133 22.5156 56.6159 22.75 57.2461 22.75C57.8659 22.75 58.3685 22.5234 58.7539 22.0703C59.1393 21.612 59.332 21.0365 59.332 20.3438ZM73.6211 23.6328C72.9805 24.0026 72.2227 24.1875 71.3477 24.1875C70.1602 24.1875 69.2018 23.8177 68.4727 23.0781C67.7435 22.3333 67.3789 21.3698 67.3789 20.1875C67.3789 18.8698 67.7695 17.8125 68.5508 17.0156C69.3372 16.2135 70.3867 15.8125 71.6992 15.8125C72.4284 15.8125 73.0716 15.9401 73.6289 16.1953V17.8828C73.0716 17.4661 72.4779 17.2578 71.8477 17.2578C71.082 17.2578 70.4544 17.5182 69.9648 18.0391C69.4753 18.5547 69.2305 19.2318 69.2305 20.0703C69.2305 20.8984 69.4596 21.5521 69.918 22.0312C70.3815 22.5104 71.0013 22.75 71.7773 22.75C72.4284 22.75 73.043 22.5182 73.6211 22.0547V23.6328ZM81.5664 24H79.8086V22.75H79.7773C79.2253 23.7083 78.4154 24.1875 77.3477 24.1875C76.5612 24.1875 75.944 23.974 75.4961 23.5469C75.0534 23.1198 74.832 22.5547 74.832 21.8516C74.832 20.3411 75.7018 19.4609 77.4414 19.2109L79.8164 18.875C79.8164 17.7344 79.2747 17.1641 78.1914 17.1641C77.2383 17.1641 76.3789 17.4922 75.6133 18.1484V16.5625C76.457 16.0625 77.431 15.8125 78.5352 15.8125C80.556 15.8125 81.5664 16.8073 81.5664 18.7969V24ZM79.8164 20.0703L78.1367 20.3047C77.6159 20.3724 77.2227 20.5 76.957 20.6875C76.6966 20.8698 76.5664 21.1927 76.5664 21.6562C76.5664 21.9948 76.6862 22.2734 76.9258 22.4922C77.1706 22.7057 77.4961 22.8125 77.9023 22.8125C78.4544 22.8125 78.9102 22.6198 79.2695 22.2344C79.6341 21.8438 79.8164 21.3542 79.8164 20.7656V20.0703ZM85.6055 24H83.7852V12.1562H85.6055V24ZM89.793 24H87.9727V12.1562H89.793V24Z" fill="white"/>
<defs>
<linearGradient id="paint0_linear_816_187" x1="50.5215" y1="0" x2="50.5215" y2="35" gradientUnits="userSpaceOnUse">
<stop stop-color="#FFA8A8"/>
<stop offset="0.625" stop-color="#FF0000"/>
</linearGradient>
</defs>
</svg>
