<svg width="15" height="15" viewBox="0 0 15 15" fill="none" xmlns="http://www.w3.org/2000/svg">
<path d="M2.47955e-05 7.08335C-0.00284386 8.18323 0.254132 9.26825 0.750022 10.25C1.33799 11.4265 2.24189 12.416 3.36048 13.1077C4.47906 13.7995 5.76815 14.1662 7.08335 14.1667C8.18323 14.1695 9.26825 13.9126 10.25 13.4167L15 15L13.4167 10.25C13.9126 9.26825 14.1695 8.18323 14.1667 7.08335C14.1662 5.76815 13.7995 4.47906 13.1077 3.36048C12.416 2.24189 11.4265 1.33799 10.25 0.750023C9.26825 0.254133 8.18323 -0.00284397 7.08335 2.374e-05H6.66668C4.92973 0.0958501 3.28915 0.82899 2.05907 2.05907C0.828991 3.28915 0.0958509 4.92973 2.47955e-05 6.66668V7.08335Z" fill="white"/>
</svg>
