<svg width="21" height="21" viewBox="0 0 21 21" fill="none" xmlns="http://www.w3.org/2000/svg">
<path d="M19.9245 12.6231C20.0687 11.9728 20.1454 11.2978 20.1454 10.6049C20.1454 5.41048 15.8747 1.19933 10.6063 1.19933C10.0501 1.19933 9.50516 1.24678 8.97502 1.3369C8.12246 0.807407 7.11384 0.5 6.03186 0.5C2.97667 0.5 0.5 2.94224 0.5 5.95441C0.5 6.96134 0.77787 7.90381 1.26039 8.71339C1.13387 9.32442 1.06736 9.95695 1.06736 10.6049C1.06736 15.7994 5.33802 20.0105 10.6063 20.0105C11.203 20.0105 11.7867 19.9561 12.353 19.8527C13.1318 20.2654 14.0221 20.5 14.9681 20.5C18.0234 20.5 20.5 18.058 20.5 15.0455C20.5 14.1752 20.2923 13.3531 19.9245 12.6231Z" fill="url(#paint0_linear_526_11)" stroke="#666666"/>
<path d="M14.5 15.5H6.5C5.95 15.5 5.5 15.05 5.5 14.5V14H15.5V14.5C15.5 15.05 15.05 15.5 14.5 15.5ZM13.765 9.595C13.605 9.235 13.245 9 12.85 9H8.15C7.755 9 7.395 9.235 7.235 9.595L5.5 13.5H15.5L13.765 9.595ZM9.25 12.5H8.75C8.61 12.5 8.5 12.39 8.5 12.25C8.5 12.11 8.61 12 8.75 12H9.25C9.39 12 9.5 12.11 9.5 12.25C9.5 12.39 9.39 12.5 9.25 12.5ZM9.25 11.5H8.75C8.61 11.5 8.5 11.39 8.5 11.25C8.5 11.11 8.61 11 8.75 11H9.25C9.39 11 9.5 11.11 9.5 11.25C9.5 11.39 9.39 11.5 9.25 11.5ZM9.25 10.5H8.75C8.61 10.5 8.5 10.39 8.5 10.25C8.5 10.11 8.61 10 8.75 10H9.25C9.39 10 9.5 10.11 9.5 10.25C9.5 10.39 9.39 10.5 9.25 10.5ZM10.75 12.5H10.25C10.11 12.5 10 12.39 10 12.25C10 12.11 10.11 12 10.25 12H10.75C10.89 12 11 12.11 11 12.25C11 12.39 10.89 12.5 10.75 12.5ZM10.75 11.5H10.25C10.11 11.5 10 11.39 10 11.25C10 11.11 10.11 11 10.25 11H10.75C10.89 11 11 11.11 11 11.25C11 11.39 10.89 11.5 10.75 11.5ZM10.75 10.5H10.25C10.11 10.5 10 10.39 10 10.25C10 10.11 10.11 10 10.25 10H10.75C10.89 10 11 10.11 11 10.25C11 10.39 10.89 10.5 10.75 10.5ZM12.25 12.5H11.75C11.61 12.5 11.5 12.39 11.5 12.25C11.5 12.11 11.61 12 11.75 12H12.25C12.39 12 12.5 12.11 12.5 12.25C12.5 12.39 12.39 12.5 12.25 12.5ZM12.25 11.5H11.75C11.61 11.5 11.5 11.39 11.5 11.25C11.5 11.11 11.61 11 11.75 11H12.25C12.39 11 12.5 11.11 12.5 11.25C12.5 11.39 12.39 11.5 12.25 11.5ZM12.25 10.5H11.75C11.61 10.5 11.5 10.39 11.5 10.25C11.5 10.11 11.61 10 11.75 10H12.25C12.39 10 12.5 10.11 12.5 10.25C12.5 10.39 12.39 10.5 12.25 10.5Z" fill="white"/>
<path d="M10.5 6.5C9.7 6.5 8.925 6.625 8.2 6.86V8.41C8.2 8.605 8.085 8.78 7.92 8.86C7.43 9.105 6.985 9.42 6.59 9.785C6.5 9.875 6.375 9.925 6.24 9.925C6.1 9.925 5.975 9.87 5.885 9.78L4.645 8.54C4.555 8.455 4.5 8.33 4.5 8.19C4.5 8.05 4.555 7.925 4.645 7.835C6.17 6.39 8.23 5.5 10.5 5.5C12.77 5.5 14.83 6.39 16.355 7.835C16.445 7.925 16.5 8.05 16.5 8.19C16.5 8.33 16.445 8.455 16.355 8.545L15.115 9.785C15.025 9.875 14.9 9.93 14.76 9.93C14.625 9.93 14.5 9.875 14.41 9.79C14.015 9.42 13.565 9.11 13.075 8.865C12.91 8.785 12.795 8.615 12.795 8.415V6.865C12.075 6.625 11.3 6.5 10.5 6.5Z" fill="white"/>
<path d="M16.9541 10.5V13.125H19.5V16.875H16.9541V19.5H13.0459V16.875H10.5V13.125H13.0459V10.5H16.9541Z" fill="url(#paint1_linear_526_11)" stroke="white" stroke-width="2"/>
<defs>
<linearGradient id="paint0_linear_526_11" x1="10.5" y1="0.5" x2="10.5" y2="20.5" gradientUnits="userSpaceOnUse">
<stop stop-color="white"/>
<stop offset="0.5" stop-color="#666666"/>
</linearGradient>
<linearGradient id="paint1_linear_526_11" x1="15" y1="11.5" x2="15" y2="18.5" gradientUnits="userSpaceOnUse">
<stop stop-color="#00C900"/>
<stop offset="1" stop-color="#00B400"/>
</linearGradient>
</defs>
</svg>
