<svg width="21" height="21" viewBox="0 0 21 21" fill="none" xmlns="http://www.w3.org/2000/svg">
<path d="M10.5 1.75C13.261 1.75 15.7293 2.55039 17.4883 3.80664C19.2487 5.0641 20.25 6.73401 20.25 8.5C20.25 10.266 19.2487 11.9359 17.4883 13.1934C15.7293 14.4496 13.261 15.25 10.5 15.25C7.73903 15.25 5.2707 14.4496 3.51172 13.1934C1.75127 11.9359 0.75 10.266 0.75 8.5C0.75 6.73401 1.75127 5.0641 3.51172 3.80664C5.2707 2.55039 7.73903 1.75 10.5 1.75Z" stroke="#D3D3D3" stroke-width="1.5"/>
<path d="M3 19.6963L6.00003 14.5" stroke="#D3D3D3" stroke-width="3"/>
<path d="M10.5556 8.26667C10.5556 8.75556 10.4394 9.2037 10.2072 9.61111C9.97497 10.0111 9.7027 10.3593 9.39039 10.6556C9.07007 10.9593 8.71772 11.2333 8.33333 11.4778C7.94895 11.7148 7.64064 11.8889 7.40841 12L7 11.3444C7.32833 11.1667 7.64064 10.9852 7.93694 10.8C8.24124 10.6074 8.47347 10.4259 8.63363 10.2556C8.84985 10.0333 9.02202 9.8037 9.15015 9.56667C9.27828 9.32222 9.35836 9.0037 9.39039 8.61111H8.81381C8.30931 8.61111 7.91692 8.49259 7.63664 8.25556C7.35636 8.01852 7.21622 7.68889 7.21622 7.26667C7.21622 6.96296 7.34434 6.67778 7.6006 6.41111C7.85686 6.13704 8.20521 6 8.64565 6C9.32633 6 9.81481 6.21111 10.1111 6.63333C10.4074 7.04815 10.5556 7.59259 10.5556 8.26667ZM15 8.26667C15 8.75556 14.8839 9.2037 14.6517 9.61111C14.4194 10.0111 14.1471 10.3593 13.8348 10.6556C13.5145 10.9593 13.1622 11.2333 12.7778 11.4778C12.3934 11.7148 12.0851 11.8889 11.8529 12L11.4444 11.3444C11.7728 11.1667 12.0851 10.9852 12.3814 10.8C12.6857 10.6074 12.9179 10.4259 13.0781 10.2556C13.2943 10.0333 13.4665 9.8037 13.5946 9.56667C13.7227 9.32222 13.8028 9.0037 13.8348 8.61111H13.2583C12.7538 8.61111 12.3614 8.49259 12.0811 8.25556C11.8008 8.01852 11.6607 7.68889 11.6607 7.26667C11.6607 6.96296 11.7888 6.67778 12.045 6.41111C12.3013 6.13704 12.6496 6 13.0901 6C13.7708 6 14.2593 6.21111 14.5556 6.63333C14.8519 7.04815 15 7.59259 15 8.26667Z" fill="#D3D3D3"/>
</svg>
