<svg width="524" height="8" viewBox="0 0 524 8" fill="none" xmlns="http://www.w3.org/2000/svg">
<mask id="path-1-inside-1_720_46" fill="white">
<path d="M-1 4C-1 1.23858 1.23858 -1 4 -1H584C586.761 -1 589 1.23858 589 4C589 6.76142 586.761 9 584 9H4.00001C1.23858 9 -1 6.76142 -1 4Z"/>
</mask>
<path d="M4 -1V0H584V-1V-2H4V-1ZM584 9V8H4.00001V9V10H584V9ZM4.00001 9V8C1.79087 8 0 6.20914 0 4H-1H-2C-2 7.31371 0.686301 10 4.00001 10V9ZM589 4H588C588 6.20914 586.209 8 584 8V9V10C587.314 10 590 7.31371 590 4H589ZM584 -1V0C586.209 0 588 1.79086 588 4H589H590C590 0.68629 587.314 -2 584 -2V-1ZM4 -1V-2C0.686292 -2 -2 0.686292 -2 4H-1H0C0 1.79086 1.79086 0 4 0V-1Z" fill="#C9C9C9" mask="url(#path-1-inside-1_720_46)"/>
</svg>
