<svg width="12" height="12" viewBox="0 0 12 12" fill="none" xmlns="http://www.w3.org/2000/svg">
<path d="M1.50822 3.17505L2.00822 3.67505L0.674885 5.00838C0.308218 5.37505 0.308219 5.97505 0.674885 6.34171L2.00822 7.67505L1.50822 8.17505C1.04822 8.63505 1.04822 9.38171 1.50822 9.84171C1.96822 10.3017 2.71489 10.3017 3.17489 9.84171L3.67489 9.34171L5.00822 10.675C5.37489 11.0417 5.97155 11.0384 6.33822 10.6717L7.60489 9.40505L7.10822 8.90838C6.61155 8.41171 6.61155 7.60505 7.10822 7.10838C7.60489 6.61171 8.41155 6.61171 8.90822 7.10838L9.40822 7.60838L10.6749 6.34171C11.0416 5.97505 11.0416 5.37505 10.6749 5.00838L9.40822 3.74171L8.90822 4.24171C8.41155 4.73838 7.60489 4.73838 7.10822 4.24171C6.61155 3.74505 6.61155 2.93838 7.10822 2.44171L7.60822 1.94171L6.34155 0.675047C5.97489 0.30838 5.37489 0.308379 5.00822 0.675046L3.67489 2.00838L3.17489 1.50838C2.71489 1.04838 1.96822 1.04838 1.50822 1.50838C1.04822 1.96838 1.04822 2.71505 1.50822 3.17505Z" stroke="#818181" stroke-width="0.8"/>
</svg>
