<svg width="125" height="35" viewBox="0 0 125 35" fill="none" xmlns="http://www.w3.org/2000/svg">
<path d="M17.5 0.5H107.5C116.889 0.5 124.5 8.11116 124.5 17.5C124.5 26.8888 116.889 34.5 107.5 34.5H17.5C8.11116 34.5 0.5 26.8888 0.5 17.5C0.5 8.11116 8.11116 0.5 17.5 0.5Z" fill="url(#paint0_linear_816_191)"/>
<path d="M17.5 0.5H107.5C116.889 0.5 124.5 8.11116 124.5 17.5C124.5 26.8888 116.889 34.5 107.5 34.5H17.5C8.11116 34.5 0.5 26.8888 0.5 17.5C0.5 8.11116 8.11116 0.5 17.5 0.5Z" stroke="#00C5F6"/>
<rect width="18" height="13" transform="translate(11 11)" fill="white"/>
<path d="M27 14.2857L22.5455 17.5L27 20.7143V14.2857Z" fill="#00C5F6"/>
<path d="M21.2727 13H14.2727C13.5698 13 13 13.5756 13 14.2857V20.7143C13 21.4244 13.5698 22 14.2727 22H21.2727C21.9756 22 22.5455 21.4244 22.5455 20.7143L22.5455 17.5L22.5455 14.2857C22.5455 13.5756 21.9756 13 21.2727 13Z" fill="#00C5F6"/>
<path d="M22.5455 17.5L27 14.2857V20.7143L22.5455 17.5ZM22.5455 17.5L22.5455 14.2857C22.5455 13.5756 21.9756 13 21.2727 13H14.2727C13.5698 13 13 13.5756 13 14.2857V20.7143C13 21.4244 13.5698 22 14.2727 22H21.2727C21.9756 22 22.5455 21.4244 22.5455 20.7143L22.5455 17.5Z" stroke="#00C5F6" stroke-width="0.5" stroke-linecap="round"/>
<path d="M12.4706 9.67113C12.2107 9.26805 12.3268 8.73058 12.7298 8.47067V8.47067C13.1329 8.21075 13.6704 8.32681 13.9303 8.72989L24.5487 25.1971C24.8086 25.6002 24.6925 26.1376 24.2894 26.3976V26.3976C23.8863 26.6575 23.3489 26.5414 23.089 26.1383L12.4706 9.67113Z" fill="white" stroke="#00C5F6" stroke-width="0.35"/>
<path d="M37.8672 23.5547V21.6406C38.0391 21.7969 38.2422 21.9375 38.4766 22.0625C38.7161 22.1875 38.9688 22.2943 39.2344 22.3828C39.5 22.4661 39.7656 22.5312 40.0312 22.5781C40.2969 22.625 40.5417 22.6484 40.7656 22.6484C41.5469 22.6484 42.1276 22.5182 42.5078 22.2578C42.8932 21.9974 43.0859 21.6198 43.0859 21.125C43.0859 20.8594 43.0208 20.6302 42.8906 20.4375C42.7656 20.2396 42.5885 20.0599 42.3594 19.8984C42.1302 19.737 41.8594 19.5833 41.5469 19.4375C41.2396 19.2865 40.9089 19.1302 40.5547 18.9688C40.1745 18.7656 39.8203 18.5599 39.4922 18.3516C39.1641 18.1432 38.8776 17.9141 38.6328 17.6641C38.3932 17.4089 38.2031 17.1224 38.0625 16.8047C37.9271 16.487 37.8594 16.1146 37.8594 15.6875C37.8594 15.1615 37.9766 14.7057 38.2109 14.3203C38.4505 13.9297 38.763 13.6094 39.1484 13.3594C39.5391 13.1042 39.9818 12.9167 40.4766 12.7969C40.9714 12.6719 41.4766 12.6094 41.9922 12.6094C43.1641 12.6094 44.0182 12.7422 44.5547 13.0078V14.8438C43.9193 14.3854 43.1016 14.1562 42.1016 14.1562C41.8255 14.1562 41.5495 14.1823 41.2734 14.2344C41.0026 14.2865 40.7578 14.3724 40.5391 14.4922C40.3255 14.612 40.151 14.7656 40.0156 14.9531C39.8802 15.1406 39.8125 15.3672 39.8125 15.6328C39.8125 15.8828 39.8646 16.099 39.9688 16.2812C40.0729 16.4635 40.224 16.6302 40.4219 16.7812C40.625 16.9323 40.8698 17.0807 41.1562 17.2266C41.4479 17.3672 41.7839 17.5208 42.1641 17.6875C42.5547 17.8906 42.9219 18.1042 43.2656 18.3281C43.6146 18.5521 43.9193 18.7995 44.1797 19.0703C44.4453 19.3411 44.6536 19.6432 44.8047 19.9766C44.9609 20.3047 45.0391 20.6797 45.0391 21.1016C45.0391 21.6693 44.9245 22.1484 44.6953 22.5391C44.4661 22.9297 44.1562 23.2474 43.7656 23.4922C43.3802 23.737 42.9349 23.9141 42.4297 24.0234C41.9245 24.1328 41.3906 24.1875 40.8281 24.1875C40.6406 24.1875 40.4089 24.1719 40.1328 24.1406C39.862 24.1146 39.5833 24.0729 39.2969 24.0156C39.0104 23.9635 38.7396 23.8984 38.4844 23.8203C38.2292 23.7422 38.0234 23.6536 37.8672 23.5547ZM50.6484 23.9141C50.2943 24.0911 49.8281 24.1797 49.25 24.1797C47.6979 24.1797 46.9219 23.4349 46.9219 21.9453V17.4219H45.5859V16H46.9219V14.1484L48.7344 13.6328V16H50.6484V17.4219H48.7344V21.4219C48.7344 21.8958 48.8203 22.2344 48.9922 22.4375C49.1641 22.6406 49.4505 22.7422 49.8516 22.7422C50.1589 22.7422 50.4245 22.6536 50.6484 22.4766V23.9141ZM55.6641 24.1875C54.4297 24.1875 53.4427 23.8151 52.7031 23.0703C51.9688 22.3203 51.6016 21.3281 51.6016 20.0938C51.6016 18.75 51.9844 17.7005 52.75 16.9453C53.5208 16.1901 54.5573 15.8125 55.8594 15.8125C57.1094 15.8125 58.0833 16.1797 58.7812 16.9141C59.4792 17.6484 59.8281 18.6667 59.8281 19.9688C59.8281 21.2448 59.4505 22.2682 58.6953 23.0391C57.9453 23.8047 56.9349 24.1875 55.6641 24.1875ZM55.75 17.2578C55.0417 17.2578 54.4818 17.5052 54.0703 18C53.6589 18.4948 53.4531 19.1771 53.4531 20.0469C53.4531 20.8854 53.6615 21.5469 54.0781 22.0312C54.4948 22.5104 55.0521 22.75 55.75 22.75C56.4635 22.75 57.0104 22.513 57.3906 22.0391C57.776 21.5651 57.9688 20.8906 57.9688 20.0156C57.9688 19.1354 57.776 18.4557 57.3906 17.9766C57.0104 17.4974 56.4635 17.2578 55.75 17.2578ZM63.5234 22.8203H63.4922V27.6797H61.6797V16H63.4922V17.4062H63.5234C64.1432 16.3438 65.0495 15.8125 66.2422 15.8125C67.2578 15.8125 68.0495 16.1693 68.6172 16.8828C69.1849 17.5964 69.4688 18.5547 69.4688 19.7578C69.4688 21.0911 69.1484 22.1589 68.5078 22.9609C67.8672 23.763 66.9922 24.1641 65.8828 24.1641C64.862 24.1641 64.0755 23.7161 63.5234 22.8203ZM63.4766 19.6641V20.6562C63.4766 21.2396 63.6615 21.7344 64.0312 22.1406C64.4062 22.5469 64.8802 22.75 65.4531 22.75C66.125 22.75 66.651 22.4896 67.0312 21.9688C67.4167 21.4427 67.6094 20.7109 67.6094 19.7734C67.6094 18.987 67.4297 18.3724 67.0703 17.9297C66.7161 17.4818 66.2344 17.2578 65.625 17.2578C64.9792 17.2578 64.4583 17.487 64.0625 17.9453C63.6719 18.4036 63.4766 18.9766 63.4766 19.6641ZM82.6172 16L79.5234 24H77.5625L74.6172 16H76.5859L78.3594 21.5938C78.4948 22.0052 78.5781 22.3646 78.6094 22.6719H78.6328C78.6797 22.2865 78.7526 21.9375 78.8516 21.625L80.7109 16H82.6172ZM84.7656 14.3203C84.4688 14.3203 84.2135 14.224 84 14.0312C83.7917 13.8385 83.6875 13.5938 83.6875 13.2969C83.6875 13 83.7917 12.7526 84 12.5547C84.2135 12.3568 84.4688 12.2578 84.7656 12.2578C85.0729 12.2578 85.3333 12.3568 85.5469 12.5547C85.7604 12.7526 85.8672 13 85.8672 13.2969C85.8672 13.5781 85.7604 13.8203 85.5469 14.0234C85.3333 14.2214 85.0729 14.3203 84.7656 14.3203ZM85.6641 24H83.8516V16H85.6641V24ZM95.3125 24H93.5V22.6406H93.4688C92.8854 23.6719 91.987 24.1875 90.7734 24.1875C89.7891 24.1875 89 23.8307 88.4062 23.1172C87.8177 22.3984 87.5234 21.4219 87.5234 20.1875C87.5234 18.8646 87.849 17.8047 88.5 17.0078C89.1562 16.2109 90.0286 15.8125 91.1172 15.8125C92.1953 15.8125 92.9792 16.2448 93.4688 17.1094H93.5V12.1562H95.3125V24ZM93.5234 20.3438V19.2969C93.5234 18.7292 93.3385 18.2474 92.9688 17.8516C92.599 17.4557 92.1276 17.2578 91.5547 17.2578C90.8776 17.2578 90.3438 17.5104 89.9531 18.0156C89.5677 18.5208 89.375 19.2214 89.375 20.1172C89.375 20.9297 89.5599 21.5729 89.9297 22.0469C90.3047 22.5156 90.8073 22.75 91.4375 22.75C92.0573 22.75 92.5599 22.5234 92.9453 22.0703C93.3307 21.612 93.5234 21.0365 93.5234 20.3438ZM104.453 20.4922H99C99.0208 21.2318 99.2474 21.8021 99.6797 22.2031C100.117 22.6042 100.716 22.8047 101.477 22.8047C102.331 22.8047 103.115 22.5495 103.828 22.0391V23.5C103.099 23.9583 102.135 24.1875 100.938 24.1875C99.7604 24.1875 98.8359 23.8255 98.1641 23.1016C97.4974 22.3724 97.1641 21.349 97.1641 20.0312C97.1641 18.7865 97.5312 17.7734 98.2656 16.9922C99.0052 16.2057 99.9219 15.8125 101.016 15.8125C102.109 15.8125 102.956 16.1641 103.555 16.8672C104.154 17.5703 104.453 18.5469 104.453 19.7969V20.4922ZM102.703 19.2109C102.698 18.5599 102.544 18.0547 102.242 17.6953C101.94 17.3307 101.523 17.1484 100.992 17.1484C100.471 17.1484 100.029 17.3385 99.6641 17.7188C99.3047 18.099 99.0833 18.5964 99 19.2109H102.703ZM109.727 24.1875C108.492 24.1875 107.505 23.8151 106.766 23.0703C106.031 22.3203 105.664 21.3281 105.664 20.0938C105.664 18.75 106.047 17.7005 106.812 16.9453C107.583 16.1901 108.62 15.8125 109.922 15.8125C111.172 15.8125 112.146 16.1797 112.844 16.9141C113.542 17.6484 113.891 18.6667 113.891 19.9688C113.891 21.2448 113.513 22.2682 112.758 23.0391C112.008 23.8047 110.997 24.1875 109.727 24.1875ZM109.812 17.2578C109.104 17.2578 108.544 17.5052 108.133 18C107.721 18.4948 107.516 19.1771 107.516 20.0469C107.516 20.8854 107.724 21.5469 108.141 22.0312C108.557 22.5104 109.115 22.75 109.812 22.75C110.526 22.75 111.073 22.513 111.453 22.0391C111.839 21.5651 112.031 20.8906 112.031 20.0156C112.031 19.1354 111.839 18.4557 111.453 17.9766C111.073 17.4974 110.526 17.2578 109.812 17.2578Z" fill="white"/>
<defs>
<linearGradient id="paint0_linear_816_191" x1="62.5" y1="0" x2="62.5" y2="35" gradientUnits="userSpaceOnUse">
<stop stop-color="#CFF6FF"/>
<stop offset="0.5" stop-color="#00C5F6"/>
</linearGradient>
</defs>
</svg>
