<svg width="10" height="7" viewBox="0 0 10 7" fill="none" xmlns="http://www.w3.org/2000/svg">
<path d="M9.25 1.10714L6.38636 3.25L9.25 5.39286V1.10714Z" fill="#0DB20D"/>
<path d="M5.56818 0.25H1.06818C0.616312 0.25 0.25 0.633756 0.25 1.10714V5.39286C0.25 5.86624 0.616312 6.25 1.06818 6.25H5.56818C6.02005 6.25 6.38636 5.86624 6.38636 5.39286L6.38636 3.25L6.38636 1.10714C6.38636 0.633756 6.02005 0.25 5.56818 0.25Z" fill="#0DB20D"/>
<path d="M6.38636 3.25L9.25 1.10714V5.39286L6.38636 3.25ZM6.38636 3.25L6.38636 1.10714C6.38636 0.633756 6.02005 0.25 5.56818 0.25H1.06818C0.616312 0.25 0.25 0.633756 0.25 1.10714V5.39286C0.25 5.86624 0.616312 6.25 1.06818 6.25H5.56818C6.02005 6.25 6.38636 5.86624 6.38636 5.39286L6.38636 3.25Z" stroke="#0DB20D" stroke-width="0.5" stroke-linecap="round"/>
</svg>
